<svg xmlns="http://www.w3.org/2000/svg" width="456" height="237.3329" viewBox="0 0 456 237.3329">
  <defs>
    <style>
      .a, .b {
        fill: #f8b5bd;
      }

      .b {
        fill-rule: evenodd;
      }
    </style>
  </defs>
  <g>
    <g>
      <path class="a" d="M126.2405,220.4267c-12.9267,7.0019-25.0039,5.8062-35.8965-3.5537a.6029.6029,0,0,0-.7856.9148c11.31,9.7188,23.8452,10.9636,37.2563,3.6989a.6028.6028,0,1,0-.5742-1.06Z"/>
      <path class="a" d="M231.7571,220.4267c-12.9268,7.0019-25.0039,5.8062-35.897-3.5537a.6029.6029,0,0,0-.7856.9148c11.311,9.7188,23.8457,10.9636,37.2568,3.6989a.6028.6028,0,0,0-.5742-1.06Z"/>
      <path class="a" d="M337.2732,220.4267c-12.9263,7.0019-25.0039,5.8062-35.8965-3.5537a.6029.6029,0,0,0-.7857.9148c11.3106,9.7188,23.8457,10.9636,37.2564,3.6989a.6028.6028,0,1,0-.5742-1.06Z"/>
      <path class="a" d="M455.9836,192.7444c-.3692-2.9306-6.1123-1.8574-7.92-1.1992a24.99,24.99,0,0,0-7.92,5.0391c-2.4336,2.1718-3.8486,5.1582-6,7.081-2.1191,1.8936-8.7871,3.9385-10.08.2393,3.2344-.4121,6.6846-.4893,8.76-2.16,2.0742-1.6679,3.25-4.33,5.16-6.24a18.9811,18.9811,0,0,1,2.76-2.16c.8828-.6074,2.1494-1.0214,2.6407-2.2793-3.004-.0429-3.8584,3.16-6.36,3.84a10.1545,10.1545,0,0,1-2.522.2323,3.3266,3.3266,0,0,0,.2456-.2822,3.2288,3.2288,0,0,0,.4751-1.9129c.0884-1.8838-2.5415-1.6013-2.5415-1.6013,0-1.6973-.1738-3.7728-.1738-3.7728a14.1139,14.1139,0,0,0-6.1333-8.9538c2.7153-2.3552.8755-6.0273.8755-6.0273,2.7173-1.319,2.7173-5.9336,2.7173-5.9336-.0874-3.86-1.2271-2.4482-1.2271-2.4482-.352-2.26-1.49-1.8839-1.49-1.8839a22.1494,22.1494,0,0,0-2.1895,3.8618c-1.8393,2.5421-.8769,4.52-.8769,4.52-3.5923-1.4119-7.0093,3.2029-7.0093,3.2029a3.95,3.95,0,0,0-1.6641,1.6,6.7741,6.7741,0,0,0,4.4683,5.4635c-1.4888.8463-.7881,3.67-.7876,3.672-.0464-.1853-.41-.29-.56-.353a4.31,4.31,0,0,0-2.3233-.4922.9575.9575,0,0,0-.2471.0969,71.1264,71.1264,0,0,0-8.2065-1.4453c.0772-.0928.1523-.1791.2217-.25-4.0488-3.1106-8.7749-1.7661-10.7-1.0221a1.5232,1.5232,0,0,1,.2905-.3988c2.293-2.3115,4.5562-2.2015,6.1494-3.6572a1.8823,1.8823,0,0,0,.4859-1.6078c-.1265-.9843-1.4156-1.5614-2.0269-2.0226a11.1194,11.1194,0,0,1-2.4917-2.8725c-4.2095,2.89-4.3911,7.7995-4.2783,9.86a1.5212,1.5212,0,0,1-.29-.4c-1.49-2.895-.686-5.0134-1.5781-6.9783a1.8818,1.8818,0,0,0-1.3789-.9592c-.9751-.1841-1.9224.8636-2.55,1.3027a11.1244,11.1244,0,0,1-3.5019,1.4819c1.4492,4.9043,6.0678,6.5884,8.0571,7.1153a1.5326,1.5326,0,0,1-.4712.1528c-3.2139.5222-4.98-.8971-7.1245-.6557a1.8005,1.8005,0,0,0-1.3906,2.4143,51.5592,51.5592,0,0,0-10.4473,4.1047c-8.4717-4.6-16.7109-6.39-24.8335-5.4236-7.5268.896-14.4849,4.0422-21.1162,8.218a74.0784,74.0784,0,0,0-26.5415-8.4038c.0767-.092.1514-.178.22-.2488-4.0488-3.1106-8.7744-1.7661-10.7-1.0221a1.5348,1.5348,0,0,1,.29-.3988c2.293-2.3115,4.5562-2.2015,6.15-3.6572a1.8837,1.8837,0,0,0,.4863-1.6078c-.1265-.9843-1.416-1.5614-2.0274-2.0226a11.1112,11.1112,0,0,1-2.4912-2.8725c-4.21,2.89-4.3916,7.7995-4.2788,9.86a1.5211,1.5211,0,0,1-.29-.4c-1.49-2.895-.6856-5.0134-1.5781-6.9783a1.8813,1.8813,0,0,0-1.379-.9592c-.9751-.1841-1.9223.8636-2.55,1.3027a11.1148,11.1148,0,0,1-3.5019,1.4819c1.45,4.9043,6.0679,6.5884,8.0576,7.1153a1.5343,1.5343,0,0,1-.4717.1528c-3.2134.5222-4.98-.8971-7.124-.6557a1.8012,1.8012,0,0,0-1.3911,2.4143,51.5572,51.5572,0,0,0-10.4468,4.1047c-8.4717-4.6-16.7114-6.39-24.834-5.4236-7.5263.896-14.4848,4.0422-21.1157,8.218a74.0842,74.0842,0,0,0-26.5415-8.4038c.0767-.092.1514-.178.22-.2488-4.0493-3.1106-8.7749-1.7661-10.7-1.0221a1.5123,1.5123,0,0,1,.2906-.3988c2.2925-2.3115,4.5561-2.2015,6.1489-3.6572a1.8837,1.8837,0,0,0,.4863-1.6078c-.1264-.9843-1.4155-1.5614-2.0273-2.0226a11.1265,11.1265,0,0,1-2.4912-2.8725c-4.21,2.89-4.3911,7.7995-4.2788,9.86a1.5441,1.5441,0,0,1-.29-.4c-1.49-2.895-.6855-5.0134-1.5776-6.9783a1.882,1.882,0,0,0-1.3789-.9592c-.9756-.1841-1.9229.8636-2.55,1.3027a11.1224,11.1224,0,0,1-3.5025,1.4819c1.45,4.9043,6.0684,6.5884,8.0576,7.1153a1.531,1.531,0,0,1-.4711.1528c-3.2139.5222-4.98-.8971-7.1246-.6557a1.8007,1.8007,0,0,0-1.3906,2.4143,51.5583,51.5583,0,0,0-10.4472,4.1047c-8.4717-4.6-16.711-6.39-24.8335-5.4236-7.5269.896-14.4854,4.0422-21.1162,8.218a74.0848,74.0848,0,0,0-26.5415-8.4038c.0766-.092.1513-.178.22-.2488-4.0488-3.1106-8.7749-1.7661-10.7-1.0221a1.5348,1.5348,0,0,1,.2905-.3988c2.293-2.3115,4.5562-2.2015,6.1494-3.6572a1.882,1.882,0,0,0,.4859-1.6078c-.1265-.9843-1.4156-1.5614-2.0269-2.0226a11.1213,11.1213,0,0,1-2.4917-2.8725c-4.2095,2.89-4.3911,7.7995-4.2783,9.86a1.5212,1.5212,0,0,1-.29-.4c-1.49-2.895-.686-5.0134-1.5781-6.9783a1.8818,1.8818,0,0,0-1.3789-.9592c-.9751-.1841-1.9224.8636-2.55,1.3027a11.12,11.12,0,0,1-3.5019,1.4819c1.45,4.9043,6.0678,6.5884,8.0571,7.1153a1.528,1.528,0,0,1-.4712.1528c-3.2134.5222-4.98-.8971-7.1245-.6557a1.8005,1.8005,0,0,0-1.3906,2.4143,51.3059,51.3059,0,0,0-20.5586,11.0856c-3.5244-.0026-6.6895-.0051-9.46-.0069-.0786-1.5214-.4277-3.9408-1.8281-4.8212a5.1112,5.1112,0,0,0,1.28-1.7251c.1088-.2546.23-.25.5146-.3008a7.6561,7.6561,0,0,0,2.01-.8347,5.4315,5.4315,0,0,0,1.7993-1.3112,2.1612,2.1612,0,0,0,.2168-.3328,3.7936,3.7936,0,0,0,3.64,1.1084c1.791-.4983,3.2114-2.5379,4.0381-5.7385a2.64,2.64,0,0,1,.6841,1.9045c.0405.7216.4653,3.79,2.7182,3.1021.9844-.3011,1.0425-1.1832,1.32-1.5245l-.0005,0c.2783-.3408,1.1308-.5754,1.2265-1.6.22-2.3462-2.872-2.1421-3.5864-2.0366a2.5641,2.5641,0,0,1-2.1279-.3555.1613.1613,0,0,1-.0322-.1659,2.5637,2.5637,0,0,1,1.8471-1.1151c.7031-.1655,3.6519-1.1167,2.5825-3.2159-.4668-.9174-1.3462-.8207-1.73-1.0353s-.7632-1.0132-1.7891-.93c-2.3481.1914-1.6108,3.2006-1.3833,3.8861a2.5621,2.5621,0,0,1,.02,2.1571.1607.1607,0,0,1-.1577.06,2.5622,2.5622,0,0,1-1.4189-1.6249c-.2852-.6639-1.7339-3.4027-3.6158-1.9849-.8222.6189-.5747,1.4682-.7192,1.8837v0c-.1445.4155-.8652.9279-.605,1.9235.5957,2.2793,3.4317,1.0308,4.0669.687a2.5613,2.5613,0,0,1,2.1211-.3936c.0107.0032.021.01.0317.0133-.76,3.0993-2.0522,5.0554-3.6582,5.5021a3.3124,3.3124,0,0,1-3.2612-1.1628c-.0049-.0048-.0127-.003-.0176-.0075a1.5484,1.5484,0,0,0-.0454-.5939,1.0183,1.0183,0,0,0-.7212-.65,4.3093,4.3093,0,0,0-2.3232.4922c-.15.0629-.5137.1677-.56.353,0-.0017.7007-2.8257-.7881-3.672a6.7751,6.7751,0,0,0,4.4688-5.4635,3.9529,3.9529,0,0,0-1.6646-1.6s-3.417-4.6148-7.0092-3.2029c0,0,.9624-1.9778-.877-4.52a22.1466,22.1466,0,0,0-2.1894-3.8618s-1.1382-.3765-1.49,1.8839c0,0-1.14-1.4116-1.227,2.4482,0,0,0,4.6146,2.7173,5.9336,0,0-1.84,3.6721.8754,6.0273a14.1139,14.1139,0,0,0-6.1333,8.9538s-.1738,2.0755-.1738,3.7728c0,0-2.63-.2825-2.541,1.6013a3.2291,3.2291,0,0,0,.4746,1.9129c.0571.0839.1294.143.1909.2194a19.0566,19.0566,0,0,1-4.9033-.1695c-2.5019-.68-3.3564-3.8828-6.36-3.84.4912,1.2579,1.7578,1.6719,2.6406,2.2793a18.9811,18.9811,0,0,1,2.76,2.16c1.91,1.91,3.086,4.5723,5.16,6.24,1.6421,1.3222,4.146,1.6459,6.7217,1.9279a9.7721,9.7721,0,0,0-.127,2.1128,6.8738,6.8738,0,0,1-2.7446.0657,4.5861,4.5861,0,0,0-.4888-.5,1.8822,1.8822,0,0,0-1.6548-.2885,1.2553,1.2553,0,0,0-.3066.1276,9.1979,9.1979,0,0,1-2.72-1.5246c-2.1514-1.9228-3.5664-4.9092-6-7.081a24.9887,24.9887,0,0,0-7.92-5.0391c-1.8076-.6582-7.5508-1.7314-7.92,1.1992a2.1443,2.1443,0,0,0,1.4394,2.28c1,.1924,2.0742-.374,2.041-1.2-.0478-1.1816-.6914-.3154-1.2011-1.32,1.0644-1.3555,2.3359-.9473,3.36-.6,2.1338.7246,4.0576,4.0058,4.9209,6.6.6426,1.9355.8613,4.3975,2.76,5.041,2.7666.9385,4.6484-2.0049,3.2392-4.32,2.0967,1.61,3.2666,4.874,6,6.6006a10.9147,10.9147,0,0,0,1.0156.5555c-.18.3462-.3276.69-.4711.9376a11.1214,11.1214,0,0,1-2.5513,2.82c3.3769,3.83,8.2729,3.4176,10.3052,3.0571a1.5365,1.5365,0,0,1-.3619.3355c-2.6938,1.8286-4.894,1.2861-6.7368,2.4089a1.8833,1.8833,0,0,0-.7861,1.4846c-.0649.99,1.09,1.8042,1.6016,2.3739a11.1175,11.1175,0,0,1,1.8935,3.2975c4.6934-2.031,5.8076-6.8188,6.09-8.8573a1.5137,1.5137,0,0,1,.209.4494c.9063,3.127-.2895,5.052.209,7.1516a1.8828,1.8828,0,0,0,1.169,1.2058c.9218.3679,2.0527-.4785,2.7529-.7891a11.1262,11.1262,0,0,1,3.7212-.782,9.2543,9.2543,0,0,0-1.2813-3.9167c8.8892,6.4592,17.6231,8.9983,26.4566,7.7344a15.9819,15.9819,0,0,0-3.5572,2.4326c-.9111-.9429-2.73.0793-3.583,2.8564-.9385,3.0564-2.9819,5.4158-7.1567,6.58,5.541,1.0389,9.7886-2.8977,10.9277-4.656,1.4453-2.2308,1.7051-3.8615.62-4.3076a24.6991,24.6991,0,0,1,6.6426-3.693c10.874-2.9151,20.627-10.85,30.9463-19.2526q1.1522-.9385,2.3081-1.8763c3.04-.0053,6.0625-.01,9.0449-.0125v.009h23.4732a12.0893,12.0893,0,0,0,1.3813,7.8817,1.5274,1.5274,0,0,1-.4312-.24c-2.5712-1.9971-2.7353-4.2572-4.3725-5.6627a1.8823,1.8823,0,0,0-1.6548-.2885c-.9619.2443-1.3794,1.5936-1.7632,2.2563a11.12,11.12,0,0,1-2.5508,2.82c3.3765,3.83,8.2725,3.4176,10.3047,3.0571a1.524,1.524,0,0,1-.3618.3355c-2.6938,1.8286-4.894,1.2861-6.7368,2.4089a1.8829,1.8829,0,0,0-.7856,1.4846c-.065.99,1.09,1.8042,1.601,2.3739a11.1311,11.1311,0,0,1,1.8941,3.2975c4.6933-2.031,5.8076-6.8188,6.09-8.8573a1.5292,1.5292,0,0,1,.2085.4494c.9062,3.127-.2891,5.052.209,7.1516a1.8834,1.8834,0,0,0,1.1694,1.2058c.9219.3679,2.0527-.4785,2.7525-.7891a11.1281,11.1281,0,0,1,3.7211-.782,9.254,9.254,0,0,0-1.2807-3.9167c8.8886,6.4592,17.6225,8.9983,26.456,7.7344a15.9835,15.9835,0,0,0-3.5571,2.4326c-.9106-.943-2.73.0793-3.5825,2.8564-.939,3.0564-2.982,5.4158-7.1568,6.58,5.5406,1.0389,9.7886-2.8977,10.9278-4.656,1.4453-2.2308,1.7051-3.8615.62-4.3076a24.6888,24.6888,0,0,1,6.6421-3.693c10.8745-2.9151,20.6274-10.85,30.9468-19.2526q1.1542-.94,2.3125-1.88h32.5131a12.093,12.093,0,0,0,1.3814,7.8817,1.531,1.531,0,0,1-.4307-.24c-2.5713-1.9971-2.7353-4.2572-4.373-5.6627a1.8815,1.8815,0,0,0-1.6543-.2885c-.9619.2443-1.3794,1.5936-1.7632,2.2563a11.1293,11.1293,0,0,1-2.5508,2.82c3.3765,3.83,8.2725,3.4176,10.3047,3.0571a1.5279,1.5279,0,0,1-.3618.3355c-2.6939,1.8286-4.8941,1.2861-6.7368,2.4089a1.8813,1.8813,0,0,0-.7857,1.4846c-.0649.99,1.0894,1.8042,1.6011,2.3739a11.1175,11.1175,0,0,1,1.8935,3.2975c4.6939-2.031,5.8077-6.8188,6.09-8.8573a1.5187,1.5187,0,0,1,.209.4494c.9062,3.127-.29,5.052.2089,7.1516a1.8842,1.8842,0,0,0,1.169,1.2058c.9219.3679,2.0527-.4785,2.7529-.7891a11.1267,11.1267,0,0,1,3.7212-.782,9.26,9.26,0,0,0-1.2808-3.9167c8.8887,6.4592,17.6226,8.9983,26.4561,7.7344a15.9788,15.9788,0,0,0-3.5571,2.4326c-.9112-.943-2.73.0793-3.5826,2.8564-.9389,3.0564-2.9824,5.4158-7.1572,6.58,5.541,1.0389,9.7891-2.8977,10.9277-4.656,1.4454-2.2308,1.7051-3.8615.62-4.3076a24.6873,24.6873,0,0,1,6.6421-3.693c10.874-2.9151,20.6269-10.85,30.9462-19.2526q1.1544-.94,2.3125-1.88h30.001v-.009l2.5142.0026a12.0876,12.0876,0,0,0,1.38,7.8881,1.5338,1.5338,0,0,1-.4311-.24c-2.5713-1.9971-2.7354-4.2572-4.3726-5.6627a1.8822,1.8822,0,0,0-1.6548-.2885c-.9619.2443-1.3789,1.5936-1.7627,2.2563a11.1285,11.1285,0,0,1-2.5512,2.82c3.3769,3.83,8.2724,3.4176,10.3047,3.0571a1.5231,1.5231,0,0,1-.3614.3355c-2.6943,1.8286-4.894,1.2861-6.7373,2.4089a1.8843,1.8843,0,0,0-.7856,1.4846c-.065.99,1.09,1.8042,1.6011,2.3739a11.1306,11.1306,0,0,1,1.894,3.2975c4.6934-2.031,5.8076-6.8188,6.09-8.8573a1.5017,1.5017,0,0,1,.2085.4494c.9068,3.127-.289,5.052.2095,7.1516a1.8817,1.8817,0,0,0,1.1689,1.2058c.9219.3679,2.0528-.4785,2.7525-.7891a11.1287,11.1287,0,0,1,3.7212-.782,9.2632,9.2632,0,0,0-1.2808-3.9172c8.8887,6.4595,17.6226,8.9988,26.4565,7.7349a15.9986,15.9986,0,0,0-3.5576,2.4326c-.9106-.9429-2.7295.0793-3.5825,2.8564-.9389,3.0564-2.9819,5.4158-7.1567,6.58,5.541,1.0389,9.7885-2.8977,10.9277-4.656,1.4453-2.2308,1.7051-3.8615.62-4.3076a24.6972,24.6972,0,0,1,6.6416-3.6928c10.8745-2.9148,20.628-10.85,30.9473-19.2528q.9148-.7452,1.834-1.488c.4873.0071.9673.0144,1.4306.0216,1.7627,5.336,9.1485,4.4454,12.96,2.04,2.7334-1.7266,3.9033-4.99,6-6.6006-1.4092,2.3154.4726,5.2588,3.2392,4.32,1.8985-.6435,2.1172-3.1055,2.76-5.041.8633-2.5938,2.7871-5.875,4.9209-6.6,1.0244-.3477,2.2959-.7559,3.36.6-.51,1.0049-1.1534.1387-1.2012,1.32-.0332.8262,1.041,1.3926,2.041,1.2A2.1445,2.1445,0,0,0,455.9836,192.7444Zm-24.878,5c.18-.2845.1939-.721.4312-.95a3.887,3.887,0,0,1,1.4057-.58c.9732.0032,1.6265.0066,1.9219.01a.3259.3259,0,0,1,.3594.24c.0225.9024-.6855,1.0743-.96,1.68a10.1808,10.1808,0,0,1-4.0644.2743A1.5856,1.5856,0,0,0,431.1056,197.7446Zm-404.21.6405c-1.7549-.01-3.373.3691-5.16-.24-.2744-.6054-.9824-.7773-.96-1.68a.3259.3259,0,0,1,.3594-.24c.4946-.0057,1.9839-.0111,4.3379-.0161a3.9818,3.9818,0,0,1,1.4258.5858c.2373.229.2509.6655.4311.95a1.5671,1.5671,0,0,0,.8145.6423C27.4466,198.3863,27.014,198.3857,26.8958,198.3851Zm4.0147,12.6284a10.0682,10.0682,0,0,1-2.7022-3.3451,10.88,10.88,0,0,0,1.8106.0191,14.1088,14.1088,0,0,0,1.3222,3.5662A1.5306,1.5306,0,0,1,30.9105,211.0135Zm343.931-21.6073a70.1034,70.1034,0,0,1,8.4966,5.651c-5.2842.0047-10.9107.01-16.8233.0152A50.256,50.256,0,0,1,374.8415,189.4062Zm-1.248-.6717a51.8168,51.8168,0,0,0-8.917,6.34c-6.5782.006-13.4927.0125-20.68.0193v-.0027H335.69a65.1612,65.1612,0,0,0-5.6128-3.5761C342.819,183.6351,356.7009,179.855,373.5935,188.7345Zm-44.6719,3.5079c1.6475.9145,3.1934,1.8708,4.6523,2.8483h-8.8515C326.1106,194.1025,327.509,193.1474,328.9216,192.2424Zm-48.7578-7.15c.0381.1014.0728.1978.1.2863a11.1119,11.1119,0,0,1,.3272,3.7885c5.1044.1367,8.1372-3.7288,9.2573-5.4622a1.5257,1.5257,0,0,1,0,.4935c-.4966,3.2177-2.3921,4.4589-2.8252,6.5731a1.8814,1.8814,0,0,0,.5518,1.5863c.6806.7222,2.0629.4313,2.8286.4447a11.133,11.133,0,0,1,3.7041.86c1.6718-4.7112-.9156-8.7134-2.2471-10.3819.0825-.0041.1655-.008.248-.0118a1.4375,1.4375,0,0,1,.1338.0549c2.9073,1.4665,3.502,3.6527,5.3784,4.7182a1.884,1.884,0,0,0,1.68-.0347c.897-.4243,1.0474-1.8289,1.2969-2.5527a10.1289,10.1289,0,0,1,.937-1.8678,72.7254,72.7254,0,0,1,26.18,8.01c-1.6987,1.1062-3.3745,2.2811-5.0352,3.4941H279.7951a74.5316,74.5316,0,0,0-9.229-6.3327A50.3282,50.3282,0,0,1,280.1638,185.0929Zm-10.8384,4.3134a70.0908,70.0908,0,0,1,8.54,5.6844H260.9944A50.3063,50.3063,0,0,1,269.3254,189.4063Zm-1.2485-.6718a51.8694,51.8694,0,0,0-8.94,6.3562H230.1731a65.084,65.084,0,0,0-5.6128-3.5761C237.3025,183.6351,251.1843,179.855,268.0769,188.7345Zm-44.6719,3.5079c1.6475.9145,3.1934,1.8708,4.6524,2.8483h-8.8516C220.594,194.1025,221.9924,193.1474,223.405,192.2424Zm-48.7573-7.15c.0381.1014.0728.1978.1.2863a11.1219,11.1219,0,0,1,.3272,3.7885c5.104.1367,8.1372-3.7288,9.2573-5.4622a1.5219,1.5219,0,0,1-.001.4935c-.4961,3.2177-2.3921,4.4589-2.8252,6.5731a1.882,1.882,0,0,0,.5518,1.5863c.6811.7222,2.0635.4313,2.8291.4447a11.1377,11.1377,0,0,1,3.7041.86c1.6714-4.7112-.916-8.7134-2.2476-10.3819q.1245-.0061.2481-.0118c.0444.0177.0854.03.1343.0549,2.9067,1.4665,3.5014,3.6527,5.3784,4.7182a1.8829,1.8829,0,0,0,1.6792-.0347c.8969-.4243,1.0478-1.8289,1.2968-2.5527a10.1082,10.1082,0,0,1,.9375-1.8678,72.73,72.73,0,0,1,26.18,8.01c-1.6987,1.1062-3.3745,2.2811-5.0351,3.4941H174.2786a74.5466,74.5466,0,0,0-9.229-6.3327A50.3442,50.3442,0,0,1,174.6477,185.0929Zm-10.8388,4.3134a70.09,70.09,0,0,1,8.54,5.6844H155.5027A50.2445,50.2445,0,0,1,163.8089,189.4063Zm-1.2486-.6718a51.8648,51.8648,0,0,0-8.9394,6.3562H124.657a65.223,65.223,0,0,0-5.6128-3.5761C131.7859,183.6351,145.6678,179.855,162.56,188.7345Zm-44.6713,3.5079c1.6474.9145,3.1943,1.8708,4.6528,2.8483H113.69C115.0779,194.1025,116.4764,193.1474,117.889,192.2424Zm-48.7578-7.15c.0381.1014.0727.1978.1.2863a11.1217,11.1217,0,0,1,.3271,3.7885c5.1045.1367,8.1372-3.7288,9.2573-5.4622a1.5368,1.5368,0,0,1,0,.4935c-.4966,3.2177-2.3921,4.4589-2.8252,6.5731a1.8816,1.8816,0,0,0,.5517,1.5863c.6807.7222,2.063.4313,2.8286.4447a11.1377,11.1377,0,0,1,3.7041.86c1.6714-4.7112-.9155-8.7134-2.247-10.3819q.1238-.0061.2475-.0118a1.4443,1.4443,0,0,1,.1343.0549c2.9067,1.4665,3.5015,3.6527,5.3784,4.7182a1.8829,1.8829,0,0,0,1.6792-.0347c.8975-.4243,1.0479-1.8289,1.2974-2.5527a10.1289,10.1289,0,0,1,.937-1.8678,72.7254,72.7254,0,0,1,26.18,8.01c-1.7,1.1069-3.3765,2.2826-5.0386,3.4965-24.73-.0236-46.26-.0429-61.6045-.0551A49.8836,49.8836,0,0,1,69.1312,185.0929ZM99.889,204.3166c-9.4986,7.7348-18.75,15.268-28.68,18.4856-3.0293.5681-6.7671.227-8.91-.93,1.1387-.6577.9209-2.0322-1.3091-3.5819-1.72-1.1956-4.3559-1.8627-8.1064-2.4943,3.521,2.0886,3.895,4.15,5.333,6.1364,1.5757,2.1761,2.9526,1.8943,3.4883.6451a12.2133,12.2133,0,0,0,5.0952,1.3442c-9.46,1.7387-19.6269-.7993-31.249-10.9436,2.5952.3694,3.9765,1.7624,5.9,1.9186a1.882,1.882,0,0,0,1.5078-.7392c.6348-.7631.1792-2.1.1-2.8617a11.13,11.13,0,0,1,.4062-3.7808c-4.913-1.0984-8.5922,2.0049-10.0673,3.5167l-.01-.01c-.0132-.0126-.0308-.0167-.0449-.0279a1.4757,1.4757,0,0,1,.0845-.38c1.1044-3.0626,3.2036-3.9169,4.0341-5.9086a1.5932,1.5932,0,0,0,.0479-.9494c9.6123-.136,23.5825-.2356,38.8383-.3013,2.5909,2.5525,5.2461,5.3817,7.9742,8.5238a.6027.6027,0,1,0,.9106-.79c-2.4272-2.7954-4.8262-5.36-7.2051-7.741,7.5127-.031,15.3028-.0539,23.0137-.0688Q100.4654,203.8479,99.889,204.3166Zm-60.2427-5.9253a5.428,5.428,0,0,0,1.1572-.2532c.9878-.3491,1.3086-1.3384.6372-1.95,15.919-.0141,40.0811-.0251,68.7583-.0329-.9824.7352-1.957,1.4864-2.9287,2.2439C77.5911,198.3971,53.4778,198.3947,39.6463,198.3913Zm69.5815.0078q1.4906-1.1457,2.9961-2.2446,5.8155-.0017,11.8589-.003,1.5513,1.1115,2.9224,2.2484Zm19.6607.001c-.8653-.7543-1.8062-1.5045-2.7881-2.2491,15.06-.0034,31.0757-.0058,47.59-.0075.898.7192,1.8027,1.4678,2.7178,2.258C159.909,198.4013,143.9075,198.4008,128.8885,198.4Zm76.517,5.9165c-9.4985,7.7348-18.75,15.268-28.68,18.4856-3.0293.5681-6.7666.227-8.9092-.93,1.1382-.6577.9209-2.0322-1.3091-3.5819-1.72-1.1956-4.356-1.8627-8.1064-2.4943,3.521,2.0886,3.895,4.15,5.3325,6.1364,1.5757,2.1761,2.9531,1.8943,3.4887.6451a12.2117,12.2117,0,0,0,5.0953,1.3442c-9.46,1.7387-19.627-.7993-31.2491-10.9436,2.5953.3694,3.9766,1.7624,5.9,1.9186a1.8821,1.8821,0,0,0,1.5083-.7392c.6348-.7631.1792-2.1.1-2.8617a11.1175,11.1175,0,0,1,.4063-3.7808c-4.9131-1.0984-8.5923,2.0049-10.0674,3.5167l-.01-.01c-.0137-.0126-.0308-.0167-.045-.0279a1.5025,1.5025,0,0,1,.084-.38c1.105-3.0626,3.2036-3.9169,4.0347-5.9086a1.7537,1.7537,0,0,0-.0728-1.3337H181.78c2.6177,2.5749,5.3008,5.4307,8.0586,8.6068a.6028.6028,0,1,0,.9107-.79q-3.67-4.2268-7.2642-7.8169h23.082Q205.9863,203.8444,205.4055,204.3166Zm-27.19-5.9151q-1.325-1.1722-2.6411-2.2583c13.1616-.0012,26.625-.0019,40.1591-.0023-.9892.7407-1.9716,1.4978-2.9506,2.2611C201.1394,198.4019,189.5652,198.4018,178.2156,198.4015Zm36.5244,0q1.5015-1.1542,3.0185-2.2612,5.907,0,11.8228,0,1.5623,1.1181,2.9473,2.2612Zm19.66,0c-.8691-.7583-1.811-1.5127-2.7988-2.2612,16.0254,0,32.0215.0008,47.605.0024.8979.7193,1.8032,1.4679,2.7182,2.2583C266.4084,198.4018,250.4324,198.402,234.4,198.402Zm76.5215,5.9146c-9.498,7.7348-18.75,15.268-28.68,18.4856-3.0293.5681-6.7671.227-8.9092-.93,1.1382-.6577.9205-2.0322-1.31-3.5819-1.72-1.1956-4.356-1.8627-8.1065-2.4943,3.5215,2.0886,3.8951,4.15,5.333,6.1364,1.5757,2.1761,2.9532,1.8943,3.4888.6451a12.2093,12.2093,0,0,0,5.0947,1.3442c-9.4594,1.7387-19.6264-.7993-31.249-10.9436,2.5957.3694,3.9771,1.7624,5.9,1.9186a1.8836,1.8836,0,0,0,1.5083-.7392c.6343-.7631.1787-2.1.1-2.8617a11.13,11.13,0,0,1,.4063-3.7808c-4.9131-1.0984-8.5918,2.0049-10.0669,3.5167l-.01-.01c-.0136-.0126-.0312-.0167-.0454-.0279a1.5234,1.5234,0,0,1,.0845-.38c1.105-3.0626,3.2036-3.9169,4.0342-5.9086a1.7542,1.7542,0,0,0-.0728-1.3337h38.8745c2.6177,2.5749,5.3008,5.4307,8.0586,8.6068a.6027.6027,0,1,0,.9106-.79q-3.67-4.2268-7.2646-7.8169h23.082Q311.5024,203.8444,310.9216,204.3166Zm-27.19-5.9151q-1.3249-1.1724-2.6407-2.258c13.8111.0013,27.2818.0033,40.148.0058-.9854.7376-1.9634,1.4912-2.938,2.2511C307.1819,198.4008,295.5964,198.4013,283.7317,198.4015ZM320.259,198.4q1.4941-1.1485,3.0039-2.2506,6.0227.0014,11.8506.0026,1.5513,1.1112,2.9287,2.2473Zm19.6548-.001c-.8638-.7534-1.8-1.5029-2.78-2.2465,17.6113.0041,33.7485.0095,47.6211.0161.8857.71,1.7778,1.448,2.68,2.2269C373.945,198.3973,357.7946,198.3985,339.9138,198.3993Zm76.5244,5.9172c-9.4981,7.7347-18.75,15.2681-28.6792,18.4854-3.03.5684-6.7676.2273-8.91-.93,1.1382-.6577.9209-2.0322-1.3091-3.5819-1.72-1.1956-4.3559-1.8627-8.1064-2.4943,3.521,2.0886,3.895,4.15,5.333,6.1364,1.5752,2.1761,2.9526,1.8943,3.4883.6451a12.2133,12.2133,0,0,0,5.0952,1.3442c-9.4595,1.7387-19.6265-.7994-31.249-10.9436,2.5952.3694,3.9765,1.7624,5.9,1.9186a1.8824,1.8824,0,0,0,1.5083-.7392c.6347-.7631.1792-2.1.1-2.8617a11.1176,11.1176,0,0,1,.4062-3.7808c-4.9131-1.0984-8.5923,2.0049-10.0673,3.5167l-.01-.01c-.0132-.0126-.0308-.0167-.0449-.0279a1.4793,1.4793,0,0,1,.0844-.38c1.1045-3.0626,3.2032-3.9169,4.0342-5.9086a1.7492,1.7492,0,0,0-.07-1.3286c13.3438.0248,26.9751.0731,39.0249.1463,2.5693,2.5358,5.2017,5.341,7.9058,8.4554a.6025.6025,0,1,0,.91-.79q-3.5867-4.1315-7.102-7.6548c8.604.0546,16.3339.1223,22.4712.2036C416.9142,203.9308,416.675,204.1236,416.4382,204.3165Zm-27.1968-5.9208q-1.3051-1.155-2.6021-2.2259c12.1036.0059,22.4078.0127,30.3535.0206-.6684.6118-.3471,1.5991.6392,1.9477a5.4226,5.4226,0,0,0,1.1538.2527C411.8786,198.3925,401.7692,198.3942,389.2414,198.3957Zm30.4858-3.3677c-7.8945.0051-19.7905.0147-34.4609.0275a74.5031,74.5031,0,0,0-9.1841-6.2975,50.3425,50.3425,0,0,1,9.5982-3.6651c.038.1015.0727.1978.1.2863a11.1217,11.1217,0,0,1,.3271,3.7885c5.1045.1367,8.1372-3.7288,9.2573-5.4622a1.5343,1.5343,0,0,1,0,.4935c-.4965,3.2177-2.3925,4.4589-2.8251,6.5731a1.8816,1.8816,0,0,0,.5517,1.5863c.6807.7222,2.063.4313,2.8286.4447a11.1377,11.1377,0,0,1,3.7041.86c1.6714-4.7112-.916-8.7134-2.2475-10.3819.083-.0041.166-.008.248-.0117.0444.0177.086.03.1343.0548,2.9067,1.4665,3.5015,3.6527,5.3784,4.7182a1.8829,1.8829,0,0,0,1.6792-.0347c.8975-.4243,1.0479-1.8289,1.2974-2.5527a10.16,10.16,0,0,1,.9463-1.8828,69.94,69.94,0,0,1,8.477,1.4342,1.8591,1.8591,0,0,0,.4141,1.03,5.4346,5.4346,0,0,0,1.7993,1.3112,7.6555,7.6555,0,0,0,2.01.8347c.2847.0513.4063.0462.5147.3008a5.11,5.11,0,0,0,1.28,1.7251C420.155,191.0886,419.8053,193.5065,419.7272,195.028Z"/>
    </g>
    <g>
      <g>
        <path class="a" d="M129.554,40.0469a8.5949,8.5949,0,0,0-1.51-.1474,10.6268,10.6268,0,0,0-7.2568,2.9013,10.3484,10.3484,0,0,0-3.0434,5.5332,10.75,10.75,0,0,0,.392,5.5142,9.6924,9.6924,0,0,1,.9873-1.2659,8.4514,8.4514,0,0,1,3.794-2.39,13.3351,13.3351,0,0,1,9.7309-8.7114,6.1171,6.1171,0,0,0-1.4091-.8976A7.04,7.04,0,0,0,129.554,40.0469Z"/>
        <path class="a" d="M137.5735,43.8555a10.4359,10.4359,0,0,0-1.6509-.1763,1.1188,1.1188,0,0,1-.0864.33,20.936,20.936,0,0,0-1.7222,6.1579,12.02,12.02,0,0,1,6.0206-.2605,17.0518,17.0518,0,0,1,6.0263,2.424A10.8428,10.8428,0,0,0,137.5735,43.8555Z"/>
        <path class="a" d="M149.3343,41.558a13.1047,13.1047,0,0,1,6.5219,6.4069,12.6726,12.6726,0,0,1,.898,2.6437,13.1756,13.1756,0,0,0-3.0772-13.1467,13.1493,13.1493,0,0,0-11.3056-4.1738,14.26,14.26,0,0,1,1.229,1.52A12.9605,12.9605,0,0,1,149.3343,41.558Z"/>
        <path class="a" d="M127.4734,37.4056a13.1277,13.1277,0,0,1,8.1245-4.2271,12.8746,12.8746,0,0,1,2.8077-.04,13.4973,13.4973,0,0,0-20.9307,8.32,13.9064,13.9064,0,0,1,1.8433-.7009A12.876,12.876,0,0,1,127.4734,37.4056Z"/>
        <path class="a" d="M145.5618,63.3365a6.0174,6.0174,0,0,0,1.6631-.1059,7.6056,7.6056,0,0,0,2.9765-1.3152A10.4632,10.4632,0,0,0,154.37,55.312a10.2092,10.2092,0,0,0-.8008-6.28,10.7473,10.7473,0,0,0-3.5537-4.2235,9.3511,9.3511,0,0,1-.0576,1.5994,8.4523,8.4523,0,0,1-1.6484,4.1574,13.3031,13.3031,0,0,1-2.7476,12.7712Z"/>
        <path class="a" d="M134.0584,52.9324a13.7426,13.7426,0,0,0,.9277,4.0739c2.2808-.4618,5.2476-2.5361,5.6963-4.3691-.354-.096-.7095-.1782-1.06-.2448A8.42,8.42,0,0,0,134.0584,52.9324Z"/>
        <path class="a" d="M135.9036,35.6764a10.6988,10.6988,0,0,0-5.1216,2.0759,9.037,9.037,0,0,1,1.52.5509,8.3311,8.3311,0,0,1,3.4384,2.8543,13.2495,13.2495,0,0,1,11.3028,6.5632,6.058,6.058,0,0,0,.4165-1.6117,7.9356,7.9356,0,0,0-.3189-3.2477,10.5065,10.5065,0,0,0-5.0088-6.0017,10.26,10.26,0,0,0-6.228-1.1832Z"/>
        <path class="a" d="M398.1511,65.8808c21.5878.085,27.5585-6.1555,28.1162-11.9089a9.09,9.09,0,0,0-4.4312-9.032,4.714,4.714,0,0,0-1.3647-.6c-2.9429-.6849-7.752-.2974-8.6353,4.6106-.8833,4.9032,2.749,7.0622,4.9082,7.1613s4.5112-.9778,4.61-4.61c1.9746.5528,2.1025,2.2864,1.9277,3.4908-1.3418,4.313-8.4746,8.8289-25.1308,8.8289H376.15a11.1979,11.1979,0,0,0,3.0972-2.9171,13.9546,13.9546,0,0,0,2.11-5.2,11.3747,11.3747,0,0,0-.1206-3.8559,30.8391,30.8391,0,0,1,17.5962,2.8291c-.0088.0176-.0181.03-.0293.053a3.1208,3.1208,0,0,1-2.1147,1.5766c-.8365.2871-2.938,1.0667-3.51,2.1911-.2925.5748.2,1.6593.6948,2.1019.94.8362,2.2012-.1651,2.6953.0515.4927.2141.6167,1.8206,1.8706,1.9407.6592.0608,1.79-.3169,2.0118-.92.437-1.1867-.4234-3.2582-.7832-4.0639a3.1379,3.1379,0,0,1-.2813-2.6237.9417.9417,0,0,0,.043-.147c.0425.0173.0805.0351.1416.0543a3.1354,3.1354,0,0,1,1.9214,1.8079c.4277.7752,1.56,2.71,2.7685,3.0787.6167.1882,1.5987-.4844,1.9468-1.05.6621-1.07-.543-2.1389-.4165-2.6613.1265-.5249,1.685-.9261,1.5864-2.18-.0532-.661-.623-1.71-1.2549-1.8212-1.2451-.2261-3.1352.9807-3.8676,1.4763a3.1417,3.1417,0,0,1-2.5347.7322c-.0645-.0117-.1055-.0122-.1509-.0173a1.3614,1.3614,0,0,0,.0278-.1488,3.1394,3.1394,0,0,1,1.4488-2.2074c.688-.5525,2.3974-2.0036,2.5493-3.26.0776-.6379-.7559-1.4891-1.3711-1.7341-1.17-.4661-2.0132.9055-2.5488.8728h-.0015c-.5366-.0349-1.2036-1.4992-2.4219-1.1835-.6406.1669-1.5737.9085-1.5752,1.5525-.0039,1.2637,1.51,2.9146,2.1255,3.55a3.1426,3.1426,0,0,1,1.1616,2.3443,31.5281,31.5281,0,0,0-17.8774-2.815,11.3126,11.3126,0,0,0-6.1953-7.2963,7.0706,7.0706,0,0,1,4.4824-.168c2.8994,1.1506,9.04.1042,7.94-3.8425-.6318-2.2679-2.5507-1.9681-2.7392-2.2986-.19-.326,1.0312-1.8349-.61-3.52-2.8671-2.9314-6.8525,1.8554-7.3086,4.9431a6.9656,6.9656,0,0,1-2.6269,3.9663c-.0908.0608-.1621.1114-.2246.1615-.041-.0677-.0918-.14-.1572-.23a6.9662,6.9662,0,0,1-1.1006-4.6285c.6308-3.0551-1.4678-8.923-5.1631-7.1539-2.1211,1.0205-1.4941,2.8541-1.7842,3.0986s-1.9892-.7-3.3613,1.2139c-2.3936,3.3276,3.0185,6.4248,6.1367,6.34a6.9672,6.9672,0,0,1,4.3613,1.893,2.7188,2.7188,0,0,0,.1973.1949c-.0576.0544-.125.1142-.1953.1926a6.9975,6.9975,0,0,1-4.3662,1.8892c-3.1192-.0928-8.5342,2.9923-6.1475,6.3277,1.3692,1.9152,3.0635.9738,3.3574,1.2194.1919.16-.0088,1,.42,1.8476-2.9253,1.2091-5.48,2.4572-7.4952,3.4461l-3.1005,1.4629-.834.3442c-1.1822-.5121-2.34-1.041-3.4571-1.5653-.9521-.4467-3.1235-1.6809-5.8706-3.0983a13.1686,13.1686,0,0,0-5.3486-10.78,12.9792,12.9792,0,0,1-.6826,11.6946,12.85,12.85,0,0,1,.0054,6.9383H336.591a10.5733,10.5733,0,0,0,.0757-6.7016,7.7834,7.7834,0,0,0-1.6352-2.8269,6.1207,6.1207,0,0,0-1.2974-1.0609,13.3243,13.3243,0,0,1-3.7373,10.5894h-4.0142a10.8239,10.8239,0,0,0-3.1352-19.8753c2.9936,7.5722,1.7021,14.8052-3.4312,19.8753h-3.8974a16.3175,16.3175,0,0,0,4.3208-4.5145c-2.8091-.8058-6.0489-3.1391-6.8863-5.8088a13.8457,13.8457,0,0,0-3.2915,2.09c.0318.32.0777.6372.1363.9458a10.7762,10.7762,0,0,0,5.1489,7.2874H303.9055c-.0083-.0711-.0239-.1414-.0308-.2127a12.9865,12.9865,0,0,1-4.6484-7.5293,14.4756,14.4756,0,0,1-1.0645-1.6432,13.0849,13.0849,0,0,0-.6367,9.3852h-3.8506a10.3928,10.3928,0,0,0-11.8466-8.5343c-.4556.0684-1.2876.1871-1.2876.1871s-23.6729,4.2114-39.732,7.5007a13.1172,13.1172,0,0,1,.335,2.9071ZM372.5349,49.49a6.9655,6.9655,0,0,1,1.1132-4.6267,1.952,1.952,0,0,1,.1348-.1426,10.33,10.33,0,0,1,6.1069,6.6609c-1.2187.1738-2.4218.3935-3.6.6576-.0473.0105-.9233.2205-.9682.2315-1.0381.2539-2.0474.5432-3.042.847A8.02,8.02,0,0,0,372.5349,49.49ZM355.65,60.8684l3.1333-1.4793c2.0327-.9975,4.6235-2.2607,7.5854-3.4791a3.1517,3.1517,0,0,0,.9913.7189c2.21,1.0644,3.8457-.6084,4.6743-2.7756,1.0185-.3193,2.0532-.6244,3.1191-.8919.0337-.0085.8906-.2167.9307-.2259,1.2944-.3,2.6181-.55,3.9619-.7394a10.1487,10.1487,0,0,1,.13,3.5381,12.708,12.708,0,0,1-1.7813,4.529,13.5339,13.5339,0,0,1-1.4365,1.6663,9.702,9.702,0,0,1-3.4785,2.0916h-9.5821a50.426,50.426,0,0,1-8.5127-2.8431Zm3.7207,2.9527H348.2634c.8633-.3057,1.7148-.62,2.5415-.9472.0122-.0048,1.6406-.6789,3.0063-1.2443C355.6672,62.4525,357.5231,63.2019,359.3708,63.8211ZM345.1345,57.643c.01-.0788.0136-.1567.0224-.2353.92.462,2.1377,1.0874,2.3272,1.1926,1.8374.9267,3.6846,1.8325,5.5332,2.6729-1.46.6014-3.0918,1.2718-3.3306,1.3637-1.09.4185-2.2134.8169-3.3677,1.1842h-3.5859A13.504,13.504,0,0,0,345.1345,57.643Z"/>
        <path class="a" d="M335.2126,42.8008A10.6257,10.6257,0,0,0,327.9558,39.9a8.5892,8.5892,0,0,0-1.51.1474,7.037,7.037,0,0,0-1.6851.5368,6.1171,6.1171,0,0,0-1.4091.8976,13.3351,13.3351,0,0,1,9.7309,8.7114,8.453,8.453,0,0,1,3.7945,2.39,9.6463,9.6463,0,0,1,.9868,1.2659,10.7451,10.7451,0,0,0,.3925-5.5142,10.3536,10.3536,0,0,0-3.0439-5.5332Z"/>
        <path class="a" d="M321.8855,50.1675a20.9191,20.9191,0,0,0-1.7217-6.1579,1.1037,1.1037,0,0,1-.0864-.33,10.4359,10.4359,0,0,0-1.6514.1763,10.8434,10.8434,0,0,0-8.5874,8.4755,17.0553,17.0553,0,0,1,6.0264-2.424A12.02,12.02,0,0,1,321.8855,50.1675Z"/>
        <path class="a" d="M300.1438,47.9649a13.1047,13.1047,0,0,1,6.5219-6.4069,12.9618,12.9618,0,0,1,5.7334-6.75,14.3848,14.3848,0,0,1,1.229-1.52,13.4889,13.4889,0,0,0-14.3823,17.3205A12.6437,12.6437,0,0,1,300.1438,47.9649Z"/>
        <path class="a" d="M320.4016,33.1785a13.1264,13.1264,0,0,1,8.1245,4.2271,12.8762,12.8762,0,0,1,8.1557,3.3522,13.9267,13.9267,0,0,1,1.8428.7009A13.1738,13.1738,0,0,0,331.0583,32a13.1992,13.1992,0,0,0-13.4643,1.1394A12.8737,12.8737,0,0,1,320.4016,33.1785Z"/>
        <path class="a" d="M302.4309,49.032a10.2,10.2,0,0,0-.8008,6.28,10.4612,10.4612,0,0,0,4.1685,6.6034,7.5993,7.5993,0,0,0,2.9765,1.3152,6.0161,6.0161,0,0,0,1.6631.1059,13.3046,13.3046,0,0,1-2.748-12.7712,8.4609,8.4609,0,0,1-1.6485-4.1574,9.4022,9.4022,0,0,1-.0576-1.5994A10.746,10.746,0,0,0,302.4309,49.032Z"/>
        <path class="a" d="M321.0139,57.0063a13.7582,13.7582,0,0,0,.9277-4.0739,8.4208,8.4208,0,0,0-5.5644-.54c-.3506.0666-.7056.1488-1.06.2448C315.7658,54.47,318.7326,56.5445,321.0139,57.0063Z"/>
        <path class="a" d="M308.86,42.8613a7.9429,7.9429,0,0,0-.3193,3.2477,6.0361,6.0361,0,0,0,.4169,1.6117A13.25,13.25,0,0,1,320.26,41.1575a8.3357,8.3357,0,0,1,3.4389-2.8543,9.0313,9.0313,0,0,1,1.5191-.5509,10.6968,10.6968,0,0,0-5.1216-2.0759,10.26,10.26,0,0,0-6.2275,1.1832A10.5032,10.5032,0,0,0,308.86,42.8613Z"/>
        <path class="a" d="M182.4461,35.3111c.3706.2736,1.0424.7782,1.0424.7782s19.7232,13.7655,33.4048,22.7947a13.2226,13.2226,0,0,1,4.1089-4.1089C211.9729,41.0935,198.2073,21.37,198.2073,21.37s-.5044-.6722-.7783-1.0428c-4.28-5.7966-11.8706-5.1756-16.0147-1.0312S176.6492,31.03,182.4461,35.3111Z"/>
        <path class="a" d="M258.57,20.3276c-.2735.3706-.7779,1.0428-.7779,1.0428s-13.7651,19.7231-22.7949,33.4045a13.2323,13.2323,0,0,1,4.1094,4.1091c13.6811-9.0292,33.4038-22.7947,33.4038-22.7947s.6728-.5046,1.0434-.7782c5.7969-4.2807,5.1753-11.8707,1.0313-16.0147S262.8513,14.531,258.57,20.3276Z"/>
        <path class="a" d="M217.592,13.3411s4.2115,23.6728,7.501,39.7314a12.7857,12.7857,0,0,1,5.8135,0c3.29-16.0586,7.5015-39.7314,7.5015-39.7314s.1181-.8321.1865-1.2875C239.6667,4.9276,233.8606,0,228,0s-11.667,4.9276-10.5948,12.0536C217.4734,12.509,217.592,13.3411,217.592,13.3411Z"/>
        <path class="a" d="M214.8557,65.8817a13.1172,13.1172,0,0,1,.335-2.9071c-16.0586-3.2893-39.7319-7.5007-39.7319-7.5007s-.8321-.1187-1.2871-.1871a10.3931,10.3931,0,0,0-11.8467,8.5343h-3.85a13.0876,13.0876,0,0,0-.6372-9.3852,14.4073,14.4073,0,0,1-1.0645,1.6432,12.9832,12.9832,0,0,1-4.6479,7.5293c-.0074.0713-.023.1416-.0313.2127H141.053a10.7768,10.7768,0,0,0,5.1484-7.2874c.0586-.3086.1045-.626.1368-.9458a13.8389,13.8389,0,0,0-3.292-2.09c-.8369,2.67-4.0772,5.003-6.8863,5.8088a16.318,16.318,0,0,0,4.3213,4.5145h-3.8979c-5.1328-5.07-6.4243-12.3031-3.4312-19.8753a10.8237,10.8237,0,0,0-3.1347,19.8753h-4.0147a13.3256,13.3256,0,0,1-3.7368-10.5894,6.1082,6.1082,0,0,0-1.2974,1.0609,7.7692,7.7692,0,0,0-1.6352,2.8269,10.5705,10.5705,0,0,0,.0757,6.7016h-2.628a12.8547,12.8547,0,0,1,.0054-6.9383,12.9805,12.9805,0,0,1-.6821-11.6946,13.169,13.169,0,0,0-5.3491,10.78c-2.7466,1.4174-4.9185,2.6516-5.87,3.0983-1.1172.5244-2.2754,1.0532-3.4576,1.5653l-.8339-.3442-3.1-1.4629c-2.0157-.9889-4.57-2.237-7.4956-3.4461.4292-.8471.2285-1.6871.42-1.8476.2934-.2456,1.9882.6958,3.3574-1.2194,2.3867-3.3354-3.0288-6.4205-6.1475-6.3277a6.9954,6.9954,0,0,1-4.3662-1.8892c-.0708-.0784-.1377-.1382-.1953-.1926.0591-.0528.1226-.1145.1968-.1949a6.9683,6.9683,0,0,1,4.3613-1.893c3.1187.0845,8.53-3.0127,6.1372-6.34-1.3721-1.9141-3.0713-.97-3.3618-1.2139s.3369-2.0781-1.7837-3.0986c-3.6958-1.7691-5.7944,4.0988-5.1636,7.1539a6.9653,6.9653,0,0,1-1.1,4.6285c-.0654.09-.1162.1619-.1572.23-.0625-.05-.1343-.1007-.2246-.1615a6.9656,6.9656,0,0,1-2.6269-3.9663c-.4561-3.0877-4.4419-7.8745-7.3086-4.9431-1.6416,1.6854-.42,3.1943-.61,3.52-.1885.3305-2.1079.0307-2.7392,2.2986-1.1,3.9467,5.041,4.9931,7.94,3.8425a7.0721,7.0721,0,0,1,4.4829.168,11.3126,11.3126,0,0,0-6.1953,7.2963,31.53,31.53,0,0,0-17.8779,2.815,3.146,3.146,0,0,1,1.1616-2.3443c.6157-.6359,2.1294-2.2868,2.1255-3.55-.0015-.644-.9341-1.3856-1.5752-1.5525-1.2183-.3157-1.8853,1.1486-2.4214,1.1835h-.0015c-.5361.0327-1.3794-1.3389-2.5493-.8728-.6152.245-1.4482,1.0962-1.3711,1.7341.1524,1.2562,1.8613,2.7073,2.55,3.26a3.1372,3.1372,0,0,1,1.4483,2.2074,1.3483,1.3483,0,0,0,.0283.1488c-.0454.0051-.0864.0056-.1509.0173a3.1412,3.1412,0,0,1-2.5347-.7322c-.7329-.4956-2.623-1.7024-3.8676-1.4763-.6324.1116-1.2017,1.16-1.2549,1.8212-.0991,1.2537,1.4595,1.6549,1.5859,2.18.1265.5224-1.0786,1.5913-.416,2.6613.3477.5652,1.33,1.2378,1.9463,1.05,1.2095-.3682,2.3408-2.3035,2.769-3.0787a3.1344,3.1344,0,0,1,1.9214-1.8079c.0611-.0192.0987-.037.1411-.0543a1.009,1.009,0,0,0,.0435.147,3.1384,3.1384,0,0,1-.2817,2.6237c-.3594.8057-1.22,2.8772-.7833,4.0639.2222.6034,1.3531.9811,2.0123.92,1.2534-.12,1.3779-1.7266,1.87-1.9407.4941-.2166,1.7549.7847,2.6958-.0515.4946-.4426.9868-1.5271.6948-2.1019-.5728-1.1244-2.6738-1.904-3.5107-2.1911A3.123,3.123,0,0,1,57.1961,54.73c-.0112-.0227-.02-.0354-.0293-.053A30.839,30.839,0,0,1,74.763,51.8479a11.3747,11.3747,0,0,0-.1206,3.8559,13.9552,13.9552,0,0,0,2.1108,5.2A11.184,11.184,0,0,0,79.85,63.8211H57.8485c-16.6563,0-23.7891-4.5159-25.1309-8.8289-.1748-1.2044-.0469-2.938,1.9277-3.4908.0987,3.6326,2.4517,4.71,4.61,4.61s5.7915-2.2581,4.9082-7.1613c-.8833-4.908-5.6924-5.2955-8.6353-4.6106a4.714,4.714,0,0,0-1.3647.6,9.09,9.09,0,0,0-4.4311,9.032c.5576,5.7534,6.5283,11.9939,28.1162,11.9089ZM82.2171,44.7207c.0435.0491.0957.089.1348.1426A6.9653,6.9653,0,0,1,83.4647,49.49a8.032,8.032,0,0,0,.2548,3.6277c-.9941-.3038-2.0039-.5931-3.0415-.847-.0449-.011-.9214-.221-.9682-.2315-1.1782-.2641-2.3809-.4838-3.6-.6576A10.3282,10.3282,0,0,1,82.2171,44.7207Zm.3027,19.1a9.7042,9.7042,0,0,1-3.479-2.0916,13.5836,13.5836,0,0,1-1.436-1.6663,12.69,12.69,0,0,1-1.7813-4.529,10.1482,10.1482,0,0,1,.13-3.5381c1.3438.19,2.6675.44,3.9619.7394.0406.0092.897.2174.9312.2259,1.0654.2675,2.1006.5726,3.1191.8919.8282,2.1672,2.4639,3.84,4.6743,2.7756a3.1488,3.1488,0,0,0,.9908-.7188c2.9619,1.2183,5.5532,2.4815,7.5854,3.479l3.1338,1.4793s.1016.0422.2647.11a50.4252,50.4252,0,0,1-8.5132,2.8431Zm14.1089,0c1.8477-.6192,3.7036-1.3686,5.56-2.1915l3.0063,1.2443c.8272.3269,1.6782.6415,2.5415.9472Zm13.0523,0c-1.1548-.3673-2.2784-.7657-3.3677-1.1842-.2393-.0919-1.8706-.7622-3.3306-1.3636,1.8482-.84,3.6953-1.7463,5.5327-2.673.1895-.1052,1.4073-.7306,2.3277-1.1926.0088.0786.0122.1565.0224.2353a13.4984,13.4984,0,0,0,2.4014,6.1781Z"/>
        <path class="a" d="M199.7766,18.594c.2691.3635.7949,1.0652.7949,1.0652S212.8386,37.2444,221.56,50.3356c-3.0893-15.4242-6.626-35.2726-6.8413-36.4834,0,0-.1323-.9181-.2-1.3644A13.6084,13.6084,0,0,1,214.7,7.45a10.8576,10.8576,0,0,0-18.6147,7.697A13.627,13.627,0,0,1,199.7766,18.594Z"/>
        <path class="a" d="M174.6052,52.401c.4473.0669,1.3155.191,1.3155.191s21.1089,3.7605,36.5332,6.85c-13.0913-8.7219-29.627-20.2561-30.6358-20.96,0,0-.7422-.5557-1.1054-.8238a13.5846,13.5846,0,0,1-3.4346-3.6906,10.8578,10.8578,0,0,0-7.72,18.6054A13.6285,13.6285,0,0,1,174.6052,52.401Z"/>
        <path class="a" d="M275.2873,37.6584c-.3632.2691-1.0649.7952-1.0649.7952s-17.5854,12.2671-30.6768,20.989c15.4244-3.09,35.2725-6.6262,36.4834-6.8418,0,0,.918-.1321,1.3648-.2a13.5946,13.5946,0,0,1,5.0381.1813,10.858,10.858,0,0,0-7.6968-18.6151A13.6313,13.6313,0,0,1,275.2873,37.6584Z"/>
        <path class="a" d="M241.2893,13.8027s-3.76,21.1089-6.85,36.5331c8.7222-13.0914,20.2559-29.6269,20.96-30.6355,0,0,.5556-.7425.8237-1.1058a13.59,13.59,0,0,1,3.6909-3.4345,10.858,10.858,0,0,0-18.6055-7.72,13.63,13.63,0,0,1,.1719,5.0476C241.4133,12.9347,241.2893,13.8027,241.2893,13.8027Z"/>
        <path class="a" d="M228,55.6557a10.2262,10.2262,0,0,0-10.2261,10.226h20.4521A10.2262,10.2262,0,0,0,228,55.6557Z"/>
      </g>
      <path class="b" d="M454.5446,76.5642c-1-.1924-2.0742.374-2.041,1.2.0478,1.1816.6914.3154,1.2011,1.32-1.0644,1.3555-2.3359.9473-3.36.6-2.1338-.7246-4.0576-4.0059-4.9209-6.6-.6426-1.9356-.8613-4.3975-2.76-5.041-2.7666-.9385-4.6484,2.0049-3.2392,4.32-2.0967-1.61-3.2666-4.874-6-6.6006-3.8115-2.4053-11.1973-3.2959-12.96,2.04-16.4419.2581-48.2363.3944-76.4682.4225v-.0091H112.0032v.0091c-28.2319-.0281-60.0258-.1644-76.4677-.4225-1.7627-5.3359-9.1485-4.4453-12.96-2.04-2.7334,1.7266-3.9033,4.99-6,6.6006,1.4092-2.3154-.4726-5.2588-3.2392-4.32-1.8985.6435-2.1172,3.1054-2.76,5.041-.8633,2.5937-2.7871,5.875-4.9209,6.6-1.0244.3477-2.2959.7559-3.36-.6.51-1.0049,1.1533-.1387,1.2011-1.32.0332-.8262-1.041-1.3926-2.041-1.2a2.1443,2.1443,0,0,0-1.4394,2.28c.3691,2.9306,6.1123,1.8574,7.92,1.1992a24.99,24.99,0,0,0,7.92-5.0391c2.4336-2.1719,3.8486-5.1582,6-7.081,2.1191-1.8936,8.7871-3.9385,10.08-.2393-3.2344.4121-6.6846.4893-8.76,2.16-2.0742,1.6679-3.25,4.33-5.16,6.24a18.9733,18.9733,0,0,1-2.76,2.16c-.8828.6075-2.1494,1.0215-2.6406,2.2793,3.0039.043,3.8584-3.16,6.36-3.84,1.63-.4434,4.4736-.125,6.84-.12,3.3759.0058,39.0038-.0241,86.1874-.0689v.0028H343.9963v-.0028c47.1836.0448,82.812.0747,86.1879.0689,2.3663-.0049,5.21-.3233,6.84.12,2.5019.68,3.3564,3.8828,6.36,3.84-.4912-1.2578-1.7578-1.6718-2.6406-2.2793a18.9733,18.9733,0,0,1-2.76-2.16c-1.91-1.91-3.086-4.5723-5.16-6.24-2.0752-1.6709-5.5254-1.7481-8.76-2.16,1.293-3.6992,7.961-1.6543,10.08.2393,2.1514,1.9228,3.5664,4.9091,6,7.081a24.99,24.99,0,0,0,7.92,5.0391c1.8076.6582,7.5508,1.7314,7.92-1.1992A2.1443,2.1443,0,0,0,454.5446,76.5642Zm-25.44-3.36c1.7549.01,3.373-.3691,5.16.24.2744.6054.9824.7773.96,1.68a.326.326,0,0,1-.3594.24c-9.7988.1123-45.584.1-90.8686.0264v-.0027L112.0032,75.39c-45.2841.0739-81.07.0859-90.8681-.0264a.326.326,0,0,1-.3594-.24c-.0224-.9024.6856-1.0743.96-1.68,1.7871-.6094,3.4052-.2305,5.16-.24,4.2691-.0227,47.1768.0033,85.1074.0179l231.9931,0S424.8346,73.1811,429.1042,73.2038Z"/>
    </g>
  </g>
</svg>
